<svg xmlns="http://www.w3.org/2000/svg" version="1.1" xmlns:xlink="http://www.w3.org/1999/xlink" xmlns:svgjs="http://svgjs.dev/svgjs" width="5rem" height="1.78rem" viewBox="0 0 1000 356"><g transform="matrix(1,0,0,1,0.16994382022460286,0.588717834418901)"><svg viewBox="0 0 356 127" data-background-color="#394867" preserveAspectRatio="xMidYMid meet" height="356" width="1000" xmlns="http://www.w3.org/2000/svg" xmlns:xlink="http://www.w3.org/1999/xlink"><g id="tight-bounds" transform="matrix(1,0,0,1,-0.06049999999996203,-0.2100201263235988)"><svg viewBox="0 0 356.12052 127.42004025264723" height="127.42004025264723" width="356.12052"><g><svg viewBox="0 0 356.12052 127.42004025264723" height="127.42004025264723" width="356.12052"><g><svg viewBox="0 0 356.12052 127.42004025264723" height="127.42004025264723" width="356.12052"><g><path d="M0 127.42v-127.42h356.121v127.42z" fill="#212a3e" stroke="transparent" stroke-width="0" rx="0%" data-fill-palette-color="tertiary"></path><path d="M3.283 124.137v-120.854h349.554v120.854z" fill="#f1f6f9" stroke="transparent" stroke-width="0" rx="0%" data-fill-palette-color="quaternary"></path><path d="M9.85 117.57v-107.72h336.421v107.72z" fill="#212a3e" stroke="transparent" stroke-width="0" data-fill-palette-color="tertiary"></path></g><g transform="matrix(1,0,0,1,19.69974,19.69974)" id="textblocktransform"><svg viewBox="0 0 316.72104 88.02056025264723" height="88.02056025264723" width="316.72104" id="textblock"><g><svg viewBox="0 0 316.72104 88.02056025264723" height="88.02056025264723" width="316.72104"><g transform="matrix(1,0,0,1,0,0)"><svg width="316.72104" viewBox="1.4600000381469727 -36.040000915527344 131.4199981689453 36.53000259399414" height="88.02056025264723" data-palette-color="#f1f6f9"><path d="M24.61-35.55L24.61-31.69 15.26-31.69 15.26 0 10.79 0 10.79-31.69 1.46-31.69 1.46-35.55 24.61-35.55ZM52.29-21.12L52.29-14.65Q52.29-7.37 49.19-3.44 46.09 0.49 40.38 0.49L40.38 0.49Q34.89 0.49 31.7-3.33 28.51-7.15 28.39-14.14L28.39-14.14 28.39-20.83Q28.39-27.95 31.54-31.99 34.69-36.04 40.33-36.04L40.33-36.04Q45.94-36.04 49.08-32.17 52.22-28.3 52.29-21.12L52.29-21.12ZM47.82-14.21L47.82-20.87Q47.82-26.51 45.98-29.26 44.14-32.01 40.33-32.01L40.33-32.01Q36.64-32.01 34.75-29.22 32.86-26.44 32.83-21.02L32.83-21.02 32.83-14.65Q32.83-9.2 34.73-6.35 36.62-3.49 40.38-3.49 44.14-3.49 45.94-6.13 47.75-8.76 47.82-14.21L47.82-14.21ZM69.67 0L59.2 0 59.2-35.55 69.33-35.55Q74.19-35.55 76.64-33.18 79.1-30.81 79.1-26.07L79.1-26.07Q79.1-23.58 77.85-21.68 76.61-19.78 74.48-18.73L74.48-18.73Q76.92-17.99 78.35-15.72 79.78-13.45 79.78-10.25L79.78-10.25Q79.78-5.47 77.16-2.73 74.53 0 69.67 0L69.67 0ZM69.87-16.63L63.67-16.63 63.67-3.83 69.77-3.83Q72.31-3.83 73.8-5.51 75.29-7.18 75.29-10.21L75.29-10.21Q75.29-16.63 69.87-16.63L69.87-16.63ZM63.67-31.69L63.67-20.39 69.4-20.39Q71.72-20.39 73.15-21.95 74.58-23.51 74.58-26.1L74.58-26.1Q74.58-29.03 73.29-30.36 71.99-31.69 69.33-31.69L69.33-31.69 63.67-31.69ZM103.51-20.26L103.51-16.43 90.93-16.43 90.93-3.83 105.58-3.83 105.58 0 86.47 0 86.47-35.55 105.34-35.55 105.34-31.69 90.93-31.69 90.93-20.26 103.51-20.26ZM113.27-35.55L120.55-17.7 127.82-35.55 132.88-35.55 122.77-13.26 122.77 0 118.3 0 118.3-13.26 108.19-35.55 113.27-35.55Z" opacity="1" transform="matrix(1,0,0,1,0,0)" fill="#f1f6f9" class="undefined-text-0" data-fill-palette-color="quaternary" id="text-0"></path></svg></g></svg></g></svg></g></svg></g><g></g></svg></g><defs></defs></svg><rect width="356.12052" height="127.42004025264723" fill="none" stroke="none" visibility="hidden"></rect></g></svg></g></svg>